<?xml version="1.0" standalone="no"?>
<!DOCTYPE svg PUBLIC "-//W3C//DTD SVG 20010904//EN"
 "http://www.w3.org/TR/2001/REC-SVG-20010904/DTD/svg10.dtd">
<svg version="1.0" xmlns="http://www.w3.org/2000/svg"
 width="422.000000pt" height="637.000000pt" viewBox="0 0 422.000000 637.000000"
 preserveAspectRatio="xMidYMid meet">
<metadata>
Created by potrace 1.16, written by Peter Selinger 2001-2019
</metadata>
<g transform="translate(0.000000,637.000000) scale(0.100000,-0.100000)"
fill="#000000" stroke="none">
<path fill="#C1272D" d="M594 5576 c-199 -50 -316 -257 -255 -452 51 -166 189 -262 365 -252
132 7 240 78 298 196 31 62 33 74 32 162 -1 116 -20 166 -94 244 -88 93 -225
133 -346 102z"/>
<path fill="#C1272D" d="M357 4723 l-27 -4 2 -1552 3 -1552 27 -73 c40 -111 84 -178 178 -272
129 -130 283 -201 471 -216 l76 -7 -5 1137 -5 1136 297 0 296 0 1 -497 c1
-274 5 -799 9 -1168 6 -634 8 -673 27 -731 28 -85 86 -191 141 -260 128 -158
354 -273 540 -274 l52 0 0 1465 0 1465 655 0 655 0 0 370 0 370 -1335 0 -1335
0 0 43 c0 67 -35 190 -77 270 -52 99 -182 230 -280 280 -119 62 -252 87 -366
70z m3130 -794 c54 -26 126 -105 141 -157 47 -158 -46 -318 -206 -353 -103
-21 -217 37 -276 141 -27 47 -31 65 -31 125 0 59 5 79 30 124 72 130 215 180
342 120z"/>
<path fill="#C1272D" d="M3020 1554 l0 -1557 78 5 c231 16 469 174 568 378 86 176 79 37 82
1463 l2 1267 -365 0 -365 0 0 -1556z"/>
</g>
</svg>
